<?xml version="1.0" encoding="UTF-8"?>
<!DOCTYPE svg PUBLIC "-//W3C//DTD SVG 1.1//EN" "http://www.w3.org/Graphics/SVG/1.1/DTD/svg11.dtd">
<svg xmlns="http://www.w3.org/2000/svg" version="1.1" width="5100px" height="5100px" style="shape-rendering:geometricPrecision; text-rendering:geometricPrecision; image-rendering:optimizeQuality; fill-rule:evenodd; clip-rule:evenodd" xmlns:xlink="http://www.w3.org/1999/xlink">
<g><path style="opacity:0.995" fill="#ec1942" d="M 1372.5,1049.5 C 1421.68,1049.05 1464.68,1064.89 1501.5,1097C 1519.21,1112.86 1534.87,1130.36 1548.5,1149.5C 1570.37,1129.72 1595.03,1114.22 1622.5,1103C 1703.57,1077.72 1772.73,1096.22 1830,1158.5C 1843.46,1173.43 1855.46,1189.43 1866,1206.5C 1950.46,1151.04 2031.96,1154.88 2110.5,1218C 2123.81,1229.97 2135.65,1243.14 2146,1257.5C 2156.1,1272.7 2165.43,1288.37 2174,1304.5C 2207.93,1295.36 2242.43,1291.86 2277.5,1294C 2321.08,1298.21 2358.25,1315.71 2389,1346.5C 2420.68,1379.84 2443.68,1418.51 2458,1462.5C 2479.55,1536.38 2480.22,1609.71 2460,1682.5C 2454.82,1700.4 2447.15,1717.07 2437,1732.5C 2357.86,1691.68 2278.36,1651.51 2198.5,1612C 1924.69,1484.99 1644.19,1433.49 1357,1457.5C 1181.08,1474.78 1011.91,1519.28 849.5,1591C 811.15,1607.71 773.483,1625.71 736.5,1645C 715.667,1659.17 698.167,1676.67 684,1697.5C 591.195,1844.42 498.862,1991.75 407,2139.5C 394.88,2160.07 385.213,2181.74 378,2204.5C 366.596,2242.27 371.263,2278.27 392,2312.5C 404.418,2332.59 418.752,2351.26 435,2368.5C 568,2507.5 701,2646.5 834,2785.5C 1172.72,3141.55 1511.39,3497.55 1850,3853.5C 1852.7,3855.65 1852.87,3857.82 1850.5,3860C 1808.06,3888.78 1765.89,3917.94 1724,3947.5C 1536.33,3751.17 1348.67,3554.83 1161,3358.5C 879.032,3061.53 596.698,2764.86 314,2468.5C 209.473,2349.09 194.473,2219.42 269,2079.5C 344.108,1952.1 422.775,1827.1 505,1704.5C 543.788,1641.82 571.454,1574.49 588,1502.5C 596.108,1464.57 600.275,1426.4 600.5,1388C 599.904,1363.48 598.571,1339.15 596.5,1315C 600.501,1269.63 617.668,1230.13 648,1196.5C 697.271,1141.08 758.437,1120.58 831.5,1135C 857.383,1140.53 882.216,1149.03 906,1160.5C 924.536,1137.63 945.37,1117.13 968.5,1099C 1024.24,1058.82 1084.58,1050.49 1149.5,1074C 1178.56,1084.95 1205.56,1099.45 1230.5,1117.5C 1251.62,1095.54 1275.96,1078.04 1303.5,1065C 1325.68,1055.54 1348.68,1050.37 1372.5,1049.5 Z"/></g>
<g><path style="opacity:0.998" fill="#11ff00" d="M 2643.5,1260.5 C 3111.84,1263.51 3580.17,1267.01 4048.5,1271C 4241.61,1281.45 4412.61,1347.45 4561.5,1469C 4730.6,1610.68 4839.44,1789.84 4888,2006.5C 4926.61,2199.32 4910.11,2387.32 4838.5,2570.5C 4771.21,2739.9 4662.05,2877.57 4511,2983.5C 4476.78,3008.24 4441.44,3030.57 4405,3050.5C 4385.05,3063.08 4364.88,3063.58 4344.5,3052C 4337.86,3047.09 4331.7,3041.59 4326,3035.5C 4282.73,2987.89 4239.06,2940.56 4195,2893.5C 4101.5,2794.67 4008,2695.83 3914.5,2597C 3947.48,2594.38 3980.48,2592.04 4013.5,2590C 4152.39,2580.02 4256.56,2515.18 4326,2395.5C 4376.52,2299.13 4385.69,2198.96 4353.5,2095C 4332.03,2015.95 4288.7,1950.28 4223.5,1898C 4158.63,1849.71 4085.79,1827.21 4005,1830.5C 4004.5,1830 4004,1829.5 4003.5,1829C 3974.67,1827.75 3945.84,1826.59 3917,1825.5C 3912.59,1825.51 3908.25,1825.85 3904,1826.5C 3903.25,1825.87 3902.42,1825.37 3901.5,1825C 3892.92,1824.18 3884.42,1824.35 3876,1825.5C 3869.31,1823.96 3862.48,1823.29 3855.5,1823.5C 3850.25,1823.51 3845.09,1823.85 3840,1824.5C 3838.6,1823.77 3837.1,1823.27 3835.5,1823C 3822.18,1822.35 3809.35,1822.52 3797,1823.5C 3796.5,1823 3796,1822.5 3795.5,1822C 3788.83,1821.83 3782.17,1821.67 3775.5,1821.5C 3767.07,1821.58 3758.9,1821.91 3751,1822.5C 3749.6,1821.77 3748.1,1821.27 3746.5,1821C 3737.83,1820.83 3729.17,1820.67 3720.5,1820.5C 3707.02,1820.67 3694.19,1821 3682,1821.5C 3679.59,1820.73 3677.09,1820.23 3674.5,1820C 3614.83,1819.33 3555.17,1819.33 3495.5,1820C 3494.23,1820.31 3493.07,1820.81 3492,1821.5C 3479,1821.07 3465.17,1820.73 3450.5,1820.5C 3442.17,1820.67 3433.83,1820.83 3425.5,1821C 3422.91,1821.23 3420.41,1821.73 3418,1822.5C 3410.77,1821.92 3403.27,1821.59 3395.5,1821.5C 3389.5,1821.67 3383.5,1821.83 3377.5,1822C 3376.58,1822.37 3375.75,1822.87 3375,1823.5C 3368.6,1822.93 3361.93,1822.6 3355,1822.5C 3347.53,1822.31 3340.2,1822.97 3333,1824.5C 3321.33,1823.17 3309.67,1823.17 3298,1824.5C 3294.9,1822.95 3291.57,1822.29 3288,1822.5C 3215.7,1819.79 3152.2,1794.29 3097.5,1746C 3071.15,1719.73 3046.31,1692.23 3023,1663.5C 2977.1,1611.93 2930.1,1561.26 2882,1511.5C 2811.27,1440.11 2741.27,1368.11 2672,1295.5C 2662.26,1283.94 2652.76,1272.27 2643.5,1260.5 Z"/></g>
<g><path style="opacity:0.998" fill="#ec1942" d="M 1565.5,1652.5 C 1873.91,1651.35 2154.41,1738.02 2407,1912.5C 2424.35,2114.57 2442.52,2316.57 2461.5,2518.5C 2483.96,2750.66 2504.46,2982.32 2523,3213.5C 2523.37,3214.42 2523.87,3215.25 2524.5,3216C 2523.73,3218.41 2523.23,3220.91 2523,3223.5C 2072.67,2722.5 1622.33,2221.5 1172,1720.5C 1171.31,1719.67 1171.48,1719 1172.5,1718.5C 1278.77,1681.73 1388.1,1660.57 1500.5,1655C 1522.33,1654.15 1543.99,1653.32 1565.5,1652.5 Z"/></g>
<g><path style="opacity:0.998" fill="#ec1942" d="M 901.5,1847.5 C 909.01,1847.17 915.677,1849.34 921.5,1854C 943,1875.5 964.5,1897 986,1918.5C 1468.39,2405.55 1950.72,2892.55 2433,3379.5C 2443.93,3398.66 2441.1,3415.49 2424.5,3430C 2299.88,3524.28 2175.55,3618.95 2051.5,3714C 2030.11,3726.13 2009.28,3724.96 1989,3710.5C 1954.04,3671.2 1918.7,3632.2 1883,3593.5C 1826.97,3536.47 1771.3,3479.14 1716,3421.5C 1622.03,3317.26 1527.37,3213.6 1432,3110.5C 1225.67,2899.17 1019.33,2687.83 813,2476.5C 758.667,2420.17 704.333,2363.83 650,2307.5C 630.965,2287.47 612.298,2267.13 594,2246.5C 593.294,2244.03 593.627,2241.7 595,2239.5C 687.089,2112.68 782.089,1988.01 880,1865.5C 883.818,1860.71 887.985,1856.21 892.5,1852C 895.437,1850.2 898.437,1848.7 901.5,1847.5 Z"/></g>
<g><path style="opacity:0.998" fill="#11ff00" d="M 2710.5,2531.5 C 2980.18,2533.11 3249.84,2535.28 3519.5,2538C 3923.31,2962.47 4327.14,3386.97 4731,3811.5C 4748.72,3830.05 4765.89,3849.05 4782.5,3868.5C 4759.6,3869.73 4738.1,3870.4 4718,3870.5C 4716.6,3869.77 4715.1,3869.27 4713.5,3869C 4662.73,3868.38 4613.56,3868.54 4566,3869.5C 4564.93,3868.81 4563.77,3868.31 4562.5,3868C 4515.11,3867.33 4468.94,3867.49 4424,3868.5C 4423.25,3867.87 4422.42,3867.37 4421.5,3867C 4405.5,3866.83 4389.5,3866.67 4373.5,3866.5C 4348.11,3866.68 4323.94,3867.01 4301,3867.5C 4300.25,3866.87 4299.42,3866.37 4298.5,3866C 4284.33,3865.83 4270.17,3865.67 4256,3865.5C 4235.49,3865.63 4215.83,3865.97 4197,3866.5C 4195.93,3865.81 4194.77,3865.31 4193.5,3865C 4182,3864.83 4170.5,3864.67 4159,3864.5C 4116.67,3863.62 4074.01,3863.62 4031,3864.5C 4029.93,3863.81 4028.77,3863.31 4027.5,3863C 4007.87,3865.41 3989.53,3861.75 3972.5,3852C 3962.46,3845.63 3953.3,3838.13 3945,3829.5C 3904.65,3786.99 3864.15,3744.66 3823.5,3702.5C 3458.8,3318.49 3093.64,2934.83 2728,2551.5C 2721.94,2544.94 2716.1,2538.28 2710.5,2531.5 Z"/></g>
</svg>
